# xmcd
#
# Track frame offsets:
# 150
# 12648
# 25147
# 37635
# 51524
# 64108
# 77315
# 89636
# 103378
# 117597
# 131032
# 145254
# 160182
# 175177
# 186601
# 200575
# 215043
# 227611
#
# Disc length: 3214 seconds
#
# Revision: 0
# Processed by: cddbd v1.5PL3 Copyright (c) Steve Scherf et al.
# Submitted via: Audion 3.0.2 (http://www.panic.com/audion/)
#
DISCID=0a0c8c12
DTITLE=Kid Ory's Creole Jazz Band - Kid Ory
DYEAR=1900
DGENRE=
TTITLE0=Creole Song
TTITLE1=SOUTH
TTITLE2=GET OUT OF HERE
TTITLE3=CARELESS LOVE
TTITLE4=DO WHAT ORY SAY
TTITLE5=PANAMA
TTITLE6=MARYLAND
TTITLE7=OH! DIDN'T HE RAMBLE
TTITLE8=ORY'S CREOLE TROMBONE
TTITLE9=ORIG. DIXIE. ONE-STEP
TTITLE10=MAPLE LEAF RAG
TTITLE11=WEARY BLUES
TTITLE12=TIGER RAG
TTITLE13=BUCKET GOT A HOLE IN IT
TTITLE14=EH, LA BAS
TTITLE15=JOSHUA FIT THE BATTLE OF JERICO
TTITLE16=CREOLE BO BO
TTITLE17=BILL BAILEY W U P C HOME
EXTD=
EXTT0=
EXTT1=
EXTT2=
EXTT3=
EXTT4=
EXTT5=
EXTT6=
EXTT7=
EXTT8=
EXTT9=
EXTT10=
EXTT11=
EXTT12=
EXTT13=
EXTT14=
EXTT15=
EXTT16=
EXTT17=
PLAYORDER=
